<svg width="28" height="28" viewBox="0 0 28 28" fill="none" xmlns="http://www.w3.org/2000/svg">
<g clip-path="url(#clip0_310_2787)">
<path d="M20.4173 7.5835H20.429M8.16732 2.3335H19.834C23.0556 2.3335 25.6673 4.94517 25.6673 8.16683V19.8335C25.6673 23.0552 23.0556 25.6668 19.834 25.6668H8.16732C4.94566 25.6668 2.33398 23.0552 2.33398 19.8335V8.16683C2.33398 4.94517 4.94566 2.3335 8.16732 2.3335ZM18.6673 13.2652C18.8113 14.2361 18.6455 15.2277 18.1934 16.099C17.7413 16.9703 17.026 17.6768 16.1492 18.1181C15.2724 18.5594 14.2788 18.713 13.3097 18.5571C12.3406 18.4011 11.4454 17.9436 10.7513 17.2495C10.0572 16.5554 9.59967 15.6602 9.44373 14.6911C9.28779 13.722 9.44139 12.7284 9.8827 11.8516C10.324 10.9748 11.0305 10.2595 11.9018 9.80744C12.7731 9.35536 13.7647 9.18952 14.7357 9.3335C15.7261 9.48036 16.643 9.94187 17.351 10.6499C18.0589 11.3578 18.5205 12.2748 18.6673 13.2652Z" stroke="#B3B3B3" stroke-width="4" stroke-linecap="round" stroke-linejoin="round"/>
</g>
<defs>
<clipPath id="clip0_310_2787">
<rect width="28" height="28" fill="white"/>
</clipPath>
</defs>
</svg>
