<svg width="28" height="28" viewBox="0 0 28 28" fill="none" xmlns="http://www.w3.org/2000/svg">
<path d="M18.6673 9.3335C20.5238 9.3335 22.3043 10.071 23.6171 11.3837C24.9298 12.6965 25.6673 14.477 25.6673 16.3335V24.5002H21.0007V16.3335C21.0007 15.7147 20.7548 15.1212 20.3172 14.6836C19.8796 14.246 19.2862 14.0002 18.6673 14.0002C18.0485 14.0002 17.455 14.246 17.0174 14.6836C16.5798 15.1212 16.334 15.7147 16.334 16.3335V24.5002H11.6673V16.3335C11.6673 14.477 12.4048 12.6965 13.7176 11.3837C15.0303 10.071 16.8108 9.3335 18.6673 9.3335Z" stroke="#B3B3B3" stroke-width="4" stroke-linecap="round" stroke-linejoin="round"/>
<path d="M7.00065 10.5002H2.33398V24.5002H7.00065V10.5002Z" stroke="#B3B3B3" stroke-width="4" stroke-linecap="round" stroke-linejoin="round"/>
<path d="M4.66732 7.00016C5.95598 7.00016 7.00065 5.95549 7.00065 4.66683C7.00065 3.37816 5.95598 2.3335 4.66732 2.3335C3.37865 2.3335 2.33398 3.37816 2.33398 4.66683C2.33398 5.95549 3.37865 7.00016 4.66732 7.00016Z" stroke="#B3B3B3" stroke-width="4" stroke-linecap="round" stroke-linejoin="round"/>
</svg>
