<svg width="29" height="29" viewBox="0 0 29 29" fill="none" xmlns="http://www.w3.org/2000/svg">
<g clip-path="url(#clip0_310_2838)">
<path d="M27.7923 3.62494C26.6352 4.44115 25.354 5.06541 23.9982 5.47369C23.2704 4.63694 22.3033 4.04386 21.2275 3.77469C20.1517 3.50551 19.0192 3.57322 17.9832 3.96866C16.9471 4.36409 16.0575 5.06818 15.4347 5.98568C14.8118 6.90319 14.4858 7.98985 14.5007 9.09869V10.307C12.3772 10.3621 10.273 9.89113 8.37562 8.93611C6.47822 7.98108 4.84645 6.57163 3.62565 4.83328C3.62565 4.83328 -1.20768 15.7083 9.66732 20.5416C7.17879 22.2308 4.2143 23.0778 1.20898 22.9583C12.084 28.9999 25.3756 22.9583 25.3756 9.06244C25.3745 8.72587 25.3422 8.39012 25.279 8.05953C26.5122 6.84333 27.3825 5.30781 27.7923 3.62494Z" stroke="#B3B3B3" stroke-width="4" stroke-linecap="round" stroke-linejoin="round"/>
</g>
<defs>
<clipPath id="clip0_310_2838">
<rect width="29" height="29" fill="white"/>
</clipPath>
</defs>
</svg>
