<svg width="39" height="39" viewBox="0 0 39 39" fill="none" xmlns="http://www.w3.org/2000/svg">
<g clip-path="url(#clip0_310_2822)">
<path d="M36.6284 10.4325C36.4354 9.66129 36.0423 8.95468 35.4887 8.38403C34.9352 7.81339 34.2409 7.39893 33.4759 7.1825C30.6809 6.5 19.5009 6.5 19.5009 6.5C19.5009 6.5 8.32093 6.5 5.52593 7.2475C4.76096 7.46393 4.06664 7.87839 3.51312 8.44903C2.95959 9.01968 2.56646 9.72629 2.37343 10.4975C1.8619 13.334 1.61169 16.2115 1.62593 19.0937C1.6077 21.9977 1.85793 24.8971 2.37343 27.755C2.58624 28.5023 2.98818 29.182 3.54041 29.7285C4.09265 30.2751 4.77651 30.6699 5.52593 30.875C8.32093 31.6225 19.5009 31.6225 19.5009 31.6225C19.5009 31.6225 30.6809 31.6225 33.4759 30.875C34.2409 30.6586 34.9352 30.2441 35.4887 29.6735C36.0423 29.1028 36.4354 28.3962 36.6284 27.625C37.136 24.8098 37.3862 21.9543 37.3759 19.0937C37.3942 16.1898 37.1439 13.2904 36.6284 10.4325Z" stroke="#B3B3B3" stroke-width="4" stroke-linecap="round" stroke-linejoin="round"/>
<path d="M15.8447 24.4075L25.1884 19.0937L15.8447 13.78V24.4075Z" stroke="#B3B3B3" stroke-width="4" stroke-linecap="round" stroke-linejoin="round"/>
</g>
<defs>
<clipPath id="clip0_310_2822">
<rect width="39" height="39" fill="white"/>
</clipPath>
</defs>
</svg>
